REM DIRINDEX 1\6,1\2\7,1\2\8,1\2\9,1\3\10,1\3\11,1\4\12,1\4\13,1\4\14,1\5\15,1\5\16,1\5\17
REM DIRNAME folder01,folder02,folder03,folder04,folder05,folder06,folder07,folder08,folder09,folder10,folder11,folder12,folder13,folder14,folder15,folder16,folder17
TITLE ""
FILE "P2Q_t_1033-1050.mp3" MP3
  TRACK 01 AUDIO
    TITLE "10:cjc040_3722"
    INDEX 01 00:00:00
  TRACK 02 AUDIO
    TITLE "0:"
    INDEX 01 00:01:15
  TRACK 03 AUDIO
    TITLE "11:cjc040_3723"
    INDEX 01 00:01:69
  TRACK 04 AUDIO
    TITLE "0:"
    INDEX 01 00:04:33
  TRACK 05 AUDIO
    TITLE "10:cjc040_3724"
    INDEX 01 00:05:09
  TRACK 06 AUDIO
    TITLE "0:"
    INDEX 01 00:06:28
  TRACK 07 AUDIO
    TITLE "11:cjc040_3725"
    INDEX 01 00:07:07
  TRACK 08 AUDIO
    TITLE "0:"
    INDEX 01 00:09:30
  TRACK 09 AUDIO
    TITLE "10:cjc040_3726"
    INDEX 01 00:10:08
  TRACK 10 AUDIO
    TITLE "0:"
    INDEX 01 00:11:21
  TRACK 11 AUDIO
    TITLE "11:cjc040_3727"
    INDEX 01 00:11:72
  TRACK 12 AUDIO
    TITLE "0:"
    INDEX 01 00:13:18
  TRACK 13 AUDIO
    TITLE "10:cjc040_3728"
    INDEX 01 00:13:69
  TRACK 14 AUDIO
    TITLE "0:"
    INDEX 01 00:15:07
  TRACK 15 AUDIO
    TITLE "11:cjc040_3729"
    INDEX 01 00:15:56
  TRACK 16 AUDIO
    TITLE "0:"
    INDEX 01 00:18:42
  TRACK 17 AUDIO
    TITLE "10:cjc040_3730"
    INDEX 01 00:19:16
  TRACK 18 AUDIO
    TITLE "0:"
    INDEX 01 00:20:39
  TRACK 19 AUDIO
    TITLE "11:cjc040_3731"
    INDEX 01 00:21:21
  TRACK 20 AUDIO
    TITLE "0:"
    INDEX 01 00:24:18
  TRACK 21 AUDIO
    TITLE "10:cjc040_3732"
    INDEX 01 00:24:72
  TRACK 22 AUDIO
    TITLE "0:"
    INDEX 01 00:26:09
  TRACK 23 AUDIO
    TITLE "11:cjc040_3733"
    INDEX 01 00:26:67
  TRACK 24 AUDIO
    TITLE "0:"
    INDEX 01 00:28:15
  TRACK 25 AUDIO
    TITLE "10:cjc040_3734"
    INDEX 01 00:28:62
  TRACK 26 AUDIO
    TITLE "0:"
    INDEX 01 00:30:06
  TRACK 27 AUDIO
    TITLE "11:cjc040_3735"
    INDEX 01 00:30:65
  TRACK 28 AUDIO
    TITLE "0:"
    INDEX 01 00:33:22
  TRACK 29 AUDIO
    TITLE "10:cjc040_3736"
    INDEX 01 00:33:73
  TRACK 30 AUDIO
    TITLE "0:"
    INDEX 01 00:35:27
  TRACK 31 AUDIO
    TITLE "11:cjc040_3737"
    INDEX 01 00:36:05
  TRACK 32 AUDIO
    TITLE "0:"
    INDEX 01 00:38:12
  TRACK 33 AUDIO
    TITLE "10:cjc040_3738"
    INDEX 01 00:38:65
  TRACK 34 AUDIO
    TITLE "0:"
    INDEX 01 00:40:15
  TRACK 35 AUDIO
    TITLE "11:cjc040_3739"
    INDEX 01 00:40:72
  TRACK 36 AUDIO
    TITLE "0:"
    INDEX 01 00:43:52
  TRACK 37 AUDIO
    TITLE "10:cjc040_3740"
    INDEX 01 00:44:28
  TRACK 38 AUDIO
    TITLE "0:"
    INDEX 01 00:45:45
  TRACK 39 AUDIO
    TITLE "11:cjc040_3741"
    INDEX 01 00:46:27
  TRACK 40 AUDIO
    TITLE "0:"
    INDEX 01 00:47:48
  TRACK 41 AUDIO
    TITLE "10:cjc040_3742"
    INDEX 01 00:48:22
  TRACK 42 AUDIO
    TITLE "0:"
    INDEX 01 00:49:33
  TRACK 43 AUDIO
    TITLE "11:cjc040_3743"
    INDEX 01 00:50:19
  TRACK 44 AUDIO
    TITLE "0:"
    INDEX 01 00:53:00
  TRACK 45 AUDIO
    TITLE "10:cjc040_3744"
    INDEX 01 00:53:55
  TRACK 46 AUDIO
    TITLE "0:"
    INDEX 01 00:54:66
  TRACK 47 AUDIO
    TITLE "11:cjc040_3745"
    INDEX 01 00:55:46
  TRACK 48 AUDIO
    TITLE "0:"
    INDEX 01 00:57:66
  TRACK 49 AUDIO
    TITLE "10:cjc040_3746"
    INDEX 01 00:58:48
  TRACK 50 AUDIO
    TITLE "0:"
    INDEX 01 01:00:06
  TRACK 51 AUDIO
    TITLE "11:cjc040_3747"
    INDEX 01 01:00:55
  TRACK 52 AUDIO
    TITLE "0:"
    INDEX 01 01:03:18
  TRACK 53 AUDIO
    TITLE "10:cjc040_3748"
    INDEX 01 01:03:71
  TRACK 54 AUDIO
    TITLE "0:"
    INDEX 01 01:05:07
  TRACK 55 AUDIO
    TITLE "11:cjc040_3749"
    INDEX 01 01:05:58
  TRACK 56 AUDIO
    TITLE "0:"
    INDEX 01 01:07:10
  TRACK 57 AUDIO
    TITLE "10:cjc040_3750"
    INDEX 01 01:07:61
  TRACK 58 AUDIO
    TITLE "0:"
    INDEX 01 01:09:12
  TRACK 59 AUDIO
    TITLE "11:cjc040_3751"
    INDEX 01 01:09:63
  TRACK 60 AUDIO
    TITLE "0:"
    INDEX 01 01:12:15
  TRACK 61 AUDIO
    TITLE "10:cjc040_3752"
    INDEX 01 01:12:71
  TRACK 62 AUDIO
    TITLE "0:"
    INDEX 01 01:14:16
  TRACK 63 AUDIO
    TITLE "11:cjc040_3753"
    INDEX 01 01:14:74
  TRACK 64 AUDIO
    TITLE "0:"
    INDEX 01 01:16:09
  TRACK 65 AUDIO
    TITLE "10:cjc040_3754"
    INDEX 01 01:16:60
  TRACK 66 AUDIO
    TITLE "0:"
    INDEX 01 01:18:13
  TRACK 67 AUDIO
    TITLE "11:cjc040_3755"
    INDEX 01 01:18:66
  TRACK 68 AUDIO
    TITLE "0:"
    INDEX 01 01:20:06
  TRACK 69 AUDIO
    TITLE "10:cjc040_3756"
    INDEX 01 01:20:55
  TRACK 70 AUDIO
    TITLE "0:"
    INDEX 01 01:21:55
  TRACK 71 AUDIO
    TITLE "11:cjc040_3757"
    INDEX 01 01:22:33
  TRACK 72 AUDIO
    TITLE "0:"
    INDEX 01 01:23:36
